<svg id="Capa_1" enable-background="new 0 0 507.974 507.974" height="512" viewBox="0 0 507.974 507.974" width="512" xmlns="http://www.w3.org/2000/svg"><g><path d="m344.111 467.008h-16.386v-319.532c0-4.525-3.668-8.193-8.193-8.193h-16.386v-98.317h24.579c4.525 0 8.193-3.668 8.193-8.193v-24.58c0-4.525-3.668-8.193-8.193-8.193h-147.476c-4.525 0-8.193 3.668-8.193 8.193v24.579c0 4.525 3.668 8.193 8.193 8.193h24.579v98.318h-16.386c-4.525 0-8.193 3.668-8.193 8.193v319.532h-16.386c-4.525 0-8.193 3.668-8.193 8.193s3.668 8.193 8.193 8.193h24.579v16.386c0 4.525 3.668 8.193 8.193 8.193h114.704c4.525 0 8.193-3.668 8.193-8.193v-16.386h24.579c4.525 0 8.193-3.668 8.193-8.193s-3.668-8.193-8.193-8.193zm-155.669-442.429v-8.193h131.09v8.193zm32.772 114.704v-98.317h65.545v98.318h-65.545zm65.546 16.386v122.897h-65.545v-122.897zm-90.125 0h8.193v122.897h-8.193zm106.511 335.919h-98.318v-8.193h98.318zm8.193-24.58h-114.704v-172.055h114.704zm0-188.442h-8.193v-122.897h8.193z"/></g></svg>