<?xml version="1.0" encoding="UTF-8"?>
<svg xmlns="http://www.w3.org/2000/svg" id="Outline" viewBox="0 0 512 512" width="512" height="512"><path d="M415.59,421.47,370.321,285.664A24.032,24.032,0,0,0,384,264v-.892a72.37,72.37,0,0,0-7.6-32.2l-2.932-5.863a56.269,56.269,0,0,1,0-50.089l2.932-5.864a72.37,72.37,0,0,0,7.6-32.2V136a24.03,24.03,0,0,0-20.966-23.8L391.59,26.53A8,8,0,0,0,384,16H144a40.045,40.045,0,0,0-40,40,8,8,0,0,0,8,8h4.912a8.039,8.039,0,0,1,7.491,5.19l16.984,45.292A24.023,24.023,0,0,0,128,136v.892a72.37,72.37,0,0,0,7.6,32.2l2.932,5.863a56.269,56.269,0,0,1,0,50.089l-2.932,5.864a72.37,72.37,0,0,0-7.6,32.2V264a24.032,24.032,0,0,0,13.679,21.664L96.41,421.47A8.027,8.027,0,0,0,96,424a72.081,72.081,0,0,0,72,72H344a72.081,72.081,0,0,0,72-72A8.027,8.027,0,0,0,415.59,421.47ZM368,263.108V264a8.009,8.009,0,0,1-8,8H288.616l-14.535-36.338A40.13,40.13,0,0,0,295.2,208h56.844a71.744,71.744,0,0,0,7.116,24.2l2.933,5.865A56.277,56.277,0,0,1,368,263.108ZM256,224a24,24,0,1,1,24-24A24.028,24.028,0,0,1,256,224Zm0,16c.857,0,1.7-.036,2.548-.09L271.384,272H240.616l12.836-32.09C254.3,239.964,255.143,240,256,240ZM121.234,48.4A24.042,24.042,0,0,1,144,32H372.9l-26.667,80H157.543L139.384,63.573A24.133,24.133,0,0,0,121.234,48.4ZM144,136.892V136a8.009,8.009,0,0,1,8-8H360a8.009,8.009,0,0,1,8,8v.892a56.277,56.277,0,0,1-5.912,25.043l-2.933,5.866a71.745,71.745,0,0,0-7.116,24.2H295.2a40,40,0,0,0-78.39,0H159.961a71.766,71.766,0,0,0-7.116-24.2l-2.933-5.865A56.277,56.277,0,0,1,144,136.892Zm0,126.216a56.277,56.277,0,0,1,5.912-25.043l2.933-5.866a71.768,71.768,0,0,0,7.116-24.2h56.844a40.13,40.13,0,0,0,21.114,27.662L223.384,272H152a8.009,8.009,0,0,1-8-8ZM344,480H168a56.067,56.067,0,0,1-55.986-54.743L157.767,288h59.217l-6.675,16.688a24.01,24.01,0,1,0,16.478,1.883L234.216,288h43.568l7.428,18.571a23.993,23.993,0,1,0,16.479-1.883L295.016,288h59.217l45.753,137.257A56.067,56.067,0,0,1,344,480ZM216,320a8,8,0,1,1-8,8A8.009,8.009,0,0,1,216,320Zm88,8a8,8,0,1,1-8-8A8.009,8.009,0,0,1,304,328Z"/><path d="M352.41,378.53l15.56,46.678A24.032,24.032,0,0,1,344,448a8,8,0,0,0,0,16,40.045,40.045,0,0,0,40-40,8.032,8.032,0,0,0-.41-2.53l-16-48a8,8,0,1,0-15.18,5.06Z"/><path d="M312,448H296a8,8,0,0,0,0,16h16a8,8,0,0,0,0-16Z"/></svg>
