<svg id="Capa_1" enable-background="new 0 0 507.988 507.988" height="512" viewBox="0 0 507.988 507.988" width="512" xmlns="http://www.w3.org/2000/svg"><g><path d="m385.084 163.877h-57.352v-24.579c0-22.337-11.388-43.188-32.076-58.694-18.015-13.519-41.304-21.538-66.252-22.982 0-.082.01-.164.01-.256v-9.606c12.798-4.525 19.505-18.568 14.981-31.367-4.525-12.799-18.568-19.506-31.367-14.981s-19.505 18.568-14.981 31.367c2.475 7 7.981 12.506 14.981 14.981v9.606c0 .092.01.174.01.256-24.948 1.444-48.237 9.463-66.252 22.982-18.138 13.601-29.127 31.298-31.554 50.5h-16.907c-4.525 0-8.193 3.668-8.193 8.193 0 1.773.575 3.498 1.639 4.916l22.941 30.591v324.991c0 4.525 3.668 8.193 8.193 8.193h196.635c4.525 0 8.193-3.668 8.193-8.193v-24.579h57.352c18.093-.017 32.756-14.68 32.773-32.773v-245.794c-.018-18.092-14.681-32.755-32.774-32.772zm-172.055-139.283c0-4.525 3.668-8.193 8.193-8.193s8.193 3.668 8.193 8.193-3.668 8.193-8.193 8.193c-4.523-.006-8.187-3.671-8.193-8.193zm8.193 49.158c45.882 0 83.857 25.061 89.418 57.352h-178.836c5.561-32.291 43.536-57.352 89.418-57.352zm-65.545 311.339v-8.193h131.09v8.193zm131.09 16.387v65.545h-131.09v-65.545zm-131.09-40.966v-88.199c4.711 1.168 8.009 3.359 11.839 5.92 6.401 4.26 14.358 9.565 29.127 9.565 5.579.08 11.127-.832 16.386-2.693v75.408h-57.352zm73.738 0v-84.645c4.291-2.612 8.726-4.455 16.386-4.455 9.811 0 14.318 3.011 20.032 6.821 5.1 3.39 11.194 7.456 20.933 8.961v73.318zm81.931 131.09h-180.249v-319.532c.001-1.773-.574-3.498-1.639-4.916l-14.748-19.663h98.318v119.466c-4.291 2.612-8.726 4.455-16.386 4.455-9.811 0-14.317-3.011-20.032-6.821-5.756-3.83-12.792-8.49-24.887-9.402-3.865-2.346-8.899-1.114-11.245 2.751-.778 1.282-1.189 2.754-1.188 4.254v213.021c0 4.525 3.668 8.193 8.193 8.193h147.477c4.525 0 8.193-3.668 8.193-8.193v-195.61c0-4.525-3.668-8.193-8.193-8.193-9.811 0-14.318-3.011-20.032-6.821-6.401-4.26-14.358-9.565-29.127-9.565-5.579-.08-11.127.832-16.386 2.693v-110.228h81.931zm16.386-311.339h16.386v16.386h-16.386zm16.387 278.566h-16.386v-16.386h16.386zm-16.387-32.772v-213.021h40.966v213.021zm73.738 16.386c-.012 9.045-7.341 16.374-16.386 16.386h-24.579v-16.386h8.193c9.045-.012 16.374-7.341 16.386-16.386v-213.021c-.012-9.045-7.341-16.374-16.386-16.386h-8.193v-16.386h24.579c9.045.012 16.374 7.341 16.386 16.386z"/></g></svg>