<svg id="Capa_1" enable-background="new 0 0 507.974 507.974" height="512" viewBox="0 0 507.974 507.974" width="512" xmlns="http://www.w3.org/2000/svg"><g><g><path d="m385.077 467.008h-8.193v-16.386c0-4.525-3.668-8.193-8.193-8.193h-16.386v-57.352h8.193c4.525 0 8.193-3.668 8.193-8.193v-98.318c0-4.525-3.668-8.193-8.193-8.193h-8.193v-65.545c0-4.525-3.668-8.193-8.193-8.193h-106.511v-8.193c0-4.525-3.668-8.193-8.193-8.193v-8.193h16.386c4.525 0 8.193-3.668 8.193-8.193v-122.897c0-4.525-3.668-8.193-8.193-8.193v-24.58c0-4.525-3.668-8.193-8.193-8.193h-98.318c-4.525 0-8.193 3.668-8.193 8.193v24.579c-4.525 0-8.193 3.668-8.193 8.193v122.897c0 4.525 3.668 8.193 8.193 8.193h16.386v8.193c-4.525 0-8.193 3.668-8.193 8.193v32.773c0 4.525 3.668 8.193 8.193 8.193v6.186c-28.258 22.625-32.825 63.873-10.2 92.132s63.873 32.825 92.132 10.2c28.258-22.625 32.825-63.874 10.2-92.132-3.014-3.765-6.435-7.186-10.2-10.2v-6.186c4.525 0 8.193-3.668 8.193-8.193v-8.193h98.318v57.352h-8.193c-4.525 0-8.193 3.668-8.193 8.193v98.318c0 4.525 3.668 8.193 8.193 8.193h8.193v57.352h-16.386c-4.525 0-8.193 3.668-8.193 8.193v16.386h-73.738v-24.579c0-4.525-3.668-8.193-8.193-8.193h-19.582c2.152-5.193 3.239-10.765 3.195-16.386 0-17.441-17.963-30.007-20.012-31.38-2.763-1.854-6.372-1.854-9.135 0-3.515 2.455-6.75 5.289-9.647 8.449-6.78 7.353-10.364 15.29-10.364 22.931-.043 5.621 1.043 11.193 3.195 16.386h-19.582c-4.525 0-8.193 3.668-8.193 8.193v24.579h-16.386c-4.525 0-8.193 3.668-8.193 8.193v24.579c0 4.525 3.668 8.193 8.193 8.193h262.18c4.525 0 8.193-3.668 8.193-8.193v-24.579c-.001-4.524-3.669-8.193-8.194-8.193zm-237.601-450.622h81.931v16.386h-81.931zm90.125 270.374c-.002 27.15-22.012 49.158-49.162 49.156s-49.158-22.012-49.156-49.162c.001-16.087 7.873-31.156 21.077-40.346 2.196-1.532 3.504-4.041 3.503-6.718v-10.282h49.159v10.282c-.002 2.678 1.306 5.187 3.503 6.718 13.194 9.2 21.064 24.266 21.076 40.352zm-81.932-73.739v-16.386h65.545v16.386zm65.545-57.352c-4.525 0-8.193 3.668-8.193 8.193v16.386h-49.159v-16.386c0-4.525-3.668-8.193-8.193-8.193h-16.386v-73.738h49.159c4.525 0 8.193-3.668 8.193-8.193s-3.668-8.193-8.193-8.193h-49.159v-16.386h98.318v106.511h-16.387zm114.704 131.091h16.386v81.931h-16.386zm-8.193 172.055h32.773v8.193h-32.773zm-139.283-54.986c3.841 3.625 8.193 8.982 8.193 14.021 0 10.006-4.854 16.386-8.193 16.386s-8.193-6.38-8.193-16.386c0-5.039 4.363-10.395 8.193-14.021zm-32.773 46.793h65.545v16.386h-65.545zm221.215 40.966h-245.794v-8.193h245.794z"/><path d="m213.021 81.931h8.193c4.525 0 8.193-3.668 8.193-8.193s-3.668-8.193-8.193-8.193h-8.193c-4.525 0-8.193 3.668-8.193 8.193s3.668 8.193 8.193 8.193z"/></g></g></svg>