<?xml version="1.0" encoding="UTF-8"?>
<svg xmlns="http://www.w3.org/2000/svg" id="Outline" viewBox="0 0 512 512" width="512" height="512"><path d="M453,305.753l-40-32A8,8,0,0,0,408,272H344V224h24a8,8,0,0,0,8-8V184a8,8,0,0,0-8-8H314.752l4.8-16H336A104.118,104.118,0,0,0,440,56a40.045,40.045,0,0,0-40-40H96a8,8,0,0,0-7.663,10.3L133.248,176H80a8,8,0,0,0-8,8v32a8,8,0,0,0,8,8h.022A39.788,39.788,0,0,0,72,248a8,8,0,0,0,8,8,24.039,24.039,0,0,1,22.624,16H96a8,8,0,0,0-8,8v32a7.982,7.982,0,0,0,.35,2.342,23.794,23.794,0,0,0-3.358,7.064L56.308,421.8A8.013,8.013,0,0,0,56,424a72.081,72.081,0,0,0,72,72H320a72.081,72.081,0,0,0,72-72,8.013,8.013,0,0,0-.308-2.2l-28.684-100.4c-.137-.478-.3-.942-.467-1.407h11.037l19.008,12.672,15.5,108.46A8,8,0,0,0,416,448h32a8,8,0,0,0,8-8V312A8,8,0,0,0,453,305.753ZM104,304V288H344v16ZM424,56a88.1,88.1,0,0,1-88,88H324.352l4.8-16H336a72.081,72.081,0,0,0,72-72,8,8,0,0,0-8-8H353.152l4.8-16H400A24.027,24.027,0,0,1,424,56Zm-90.048,56,14.4-48H391.43A56.086,56.086,0,0,1,336,112Zm-35.9,64H265.759l28.8-144h46.689Zm-99.489,0-28.8-144H216V176ZM232,32h46.241l-28.8,144H232ZM106.752,32h46.689l28.8,144H149.952ZM88,192H360v16H88Zm64,32H296v16H152ZM89.032,241.028A24.045,24.045,0,0,1,112,224h24v24a8,8,0,0,0,8,8H304a8,8,0,0,0,8-8V224h16v48H119.187A40.125,40.125,0,0,0,89.032,241.028ZM375.99,425.084A56.065,56.065,0,0,1,320,480H128a56.065,56.065,0,0,1-55.99-54.916L100.377,325.8a8.033,8.033,0,0,1,7.692-5.8H339.931a8.033,8.033,0,0,1,7.692,5.8ZM440,432H422.939l-15.02-105.132a7.992,7.992,0,0,0-3.481-5.524l-24-16A8,8,0,0,0,376,304H360V288h45.194L440,315.845Z"/><path d="M333.47,368.41a8,8,0,0,0-5.059,10.12l15.559,46.678A24.032,24.032,0,0,1,320,448a8,8,0,0,0,0,16,40.045,40.045,0,0,0,40-40,8,8,0,0,0-.411-2.53l-16-48A8,8,0,0,0,333.47,368.41Z"/><path d="M288,448H272a8,8,0,0,0,0,16h16a8,8,0,0,0,0-16Z"/></svg>
